<svg xmlns="http://www.w3.org/2000/svg" version="1.1" xmlns:xlink="http://www.w3.org/1999/xlink" xmlns:svgjs="http://svgjs.com/svgjs" width="1920" height="1080" preserveAspectRatio="none" viewBox="0 0 1920 1080"><g mask="url(&quot;#SvgjsMask1084&quot;)" fill="none"><rect width="1920" height="1080" x="0" y="0" fill="rgba(214, 226, 240, 1)"></rect><path d="M0,856.737C162.142,881.338,343.7,832.366,461.808,718.587C575.771,608.801,555.097,426.243,603.322,275.528C644.674,146.293,744.78,30.001,725.095,-104.253C705.423,-238.415,570.067,-317.022,499.464,-432.788C410.389,-578.842,413.703,-805.878,256.31,-872.911C102.347,-938.483,-58.278,-791.893,-216.627,-737.765C-367.015,-686.358,-545.428,-682.912,-649.901,-563.142C-754.448,-443.288,-758.053,-268.812,-764.311,-109.891C-770.067,36.27,-754.757,184.314,-684.387,312.549C-616.846,435.63,-489.638,503.522,-379.748,590.9C-256.305,689.056,-155.926,833.079,0,856.737" fill="#a4bfde"></path><path d="M1920 1485.19C2007.556 1483.432 2102.194 1525.396 2177.358 1480.4569999999999 2252.782 1435.362 2261.608 1332.3220000000001 2304.223 1255.469 2351.2889999999998 1170.59 2442.094 1102.147 2440.945 1005.099 2439.775 906.3240000000001 2376.645 812.351 2298.263 752.233 2225.06 696.087 2123.377 714.438 2033.7069999999999 692.75 1949.574 672.4010000000001 1872.649 613.221 1787.4850000000001 628.696 1699.452 644.692 1633.046 713.2 1570.272 776.9590000000001 1503.914 844.358 1427.02 913.572 1414.685 1007.347 1402.383 1100.866 1463.405 1184.885 1505.51 1269.291 1546.188 1350.837 1575.091 1448.829 1655.913 1490.9270000000001 1735.619 1532.444 1830.148 1486.9940000000001 1920 1485.19" fill="#ffffff"></path></g><defs><mask id="SvgjsMask1084"><rect width="1920" height="1080" fill="#ffffff"></rect></mask></defs></svg>